# xmcd
#
# Track frame offsets: 
#        150
#        2516
#        9270
#        21389
#        23863
#        26556
#        30812
#        35221
#        38010
#        39653
#        44608
#        47488
#        50479
#        56037
#        58588
#        61001
#        66490
#        72170
#        72668
#        77828
#        82765
#        85298
#        85598
#        90774
#        91074
#        92332
#        92912
#        95796
#        97258
#        100749
#        105701
#        109801
#        118960
#        120889
#        123781
#        128943
#        134066
#        138229
#        140522
#        143475
#        147826
#        150303
#        155101
#        158693
#        159931
#        163419
#        166178
#        173962
#        176383
#        179322
#        189475
#        194771
#
# Disc length: 2686 seconds
#
# Revision: 1
# Processed by: cddbd v1.5.2PL0 Copyright (c) Steve Scherf et al.
# Submitted via: ExactAudioCopy v0.95a3
#
DISCID=b70a7c34
DTITLE=Moon Riders - CM Works 1977-2006
DYEAR=2006
DGENRE=JPop
TTITLE0=Nabisco PIKORA
TTITLE1=Marui no Fashion ''bye-bye boy, bye-bye girl''
TTITLE2=Marui ''hitori yori futari''
TTITLE3=Ima no Kimi ha Pika Pika ni Hikatte
TTITLE4=SONY Radio Cassette Recorder ''Energy 99''
TTITLE5=Shiseido PERKY JEAN PICO
TTITLE6=KI SA RA Koibito
TTITLE7=Torabaayu '84
TTITLE8=Shiseido PERKY JEAN LONDON
TTITLE9=Shiseido PERKY JEAN ETHENO
TTITLE10=Victor GR-C7 ''Aka chan''
TTITLE11=Bourbon ''Art Line''
TTITLE12=Keiko san no Seven-Eleven
TTITLE13=Free Ski '88
TTITLE14=House JAWA curry Don Quixote hen
TTITLE15=Nihon Jidousha Gyoukai Radio CM
TTITLE16=Toshiba ''Living Shohin''
TTITLE17=Myoujyou Ippei chan
TTITLE18=Kirin Lager '94
TTITLE19=Uni Charm Sophie Saraslim
TTITLE20=Kirin Lager '95
TTITLE21=PlayStation CM Sound Logo Opening
TTITLE22=Crash Bandicoot (Crash Banjikyuusu)
TTITLE23=PlayStation CM Sound Logo Ending
TTITLE24=PlayStation no uta
TTITLE25=PlayStation 2 CM Jingle
TTITLE26=Asics Tasa
TTITLE27=WOWOW TV CM
TTITLE28=Lawson Ennichi no Aji
TTITLE29=Shiseido Optune Original
TTITLE30=So-net PostPet
TTITLE31=Singapore Seifu Kankoukyouku
TTITLE32=Suisuemii Kajitsu Goro
TTITLE33=Mazda Nori ni Ikou
TTITLE34=Kaou Sofina Yakuyou whitening
TTITLE35=Shiseido Proudia Original with Strings Quartet
TTITLE36=Shokubutsu monogatari Toujyou SR.BS hen
TTITLE37=Hounen yuuki saibai benibana abura
TTITLE38=House tongari Corn Basketball hen
TTITLE39=Tamahiyo Hawaii Campaign 
TTITLE40=Sanyo Electric ''Kaientai''
TTITLE41=Komusun no Theme
TTITLE42=Kaou Reishasu
TTITLE43=Aloe RINA
TTITLE44=Happy set Snoopy All-Stars
TTITLE45=''Kunoru cup soup'' 2001
TTITLE46=NTT DoCoMo Cellular phone family tale
TTITLE47=Pampers Diapers Jidokan
TTITLE48=7777 (minna no GOLF4 CM song)
TTITLE49=Yakult 400 ''a man keeps moving''
TTITLE50=DoCoMo dake no uta
TTITLE51=National shokki arai kansouki ''Shin Kosadate Kaden''
EXTD=YEAR: 2006\n
EXTT0=
EXTT1=
EXTT2=
EXTT3=
EXTT4=
EXTT5=
EXTT6=
EXTT7=
EXTT8=
EXTT9=
EXTT10=
EXTT11=
EXTT12=
EXTT13=
EXTT14=
EXTT15=
EXTT16=
EXTT17=
EXTT18=
EXTT19=
EXTT20=
EXTT21=
EXTT22=
EXTT23=
EXTT24=
EXTT25=
EXTT26=
EXTT27=
EXTT28=
EXTT29=
EXTT30=
EXTT31=
EXTT32=
EXTT33=
EXTT34=
EXTT35=
EXTT36=
EXTT37=
EXTT38=
EXTT39=
EXTT40=
EXTT41=
EXTT42=
EXTT43=
EXTT44=
EXTT45=
EXTT46=
EXTT47=
EXTT48=
EXTT49=
EXTT50=
EXTT51=
PLAYORDER=
